# xmcd CD database file
# Copyright (C) 1997 Ti Kan
# 
# Track frame offsets:
#     150
#     15167
#     28532
#     39855
#     53032
#     69532
#     93115
#     107077
#     120707
#     136925
#     152730
#     171137
# 
# Disc length: 2478 seconds
# 
# Revision: 1
# Processed by: cddbd v1.4b41PL1 Copyright (c) Steve Scherf et al.
# Submitted via: DiscPlay 4.0.4
# 
DISCID=8809ac0c
DTITLE=The Instigators - Rock n Bowl
DYEAR=1900
DGENRE=
TTITLE0=Look whatcha done
TTITLE1=You give me nothing but the blues
TTITLE2=I m Getting drunk
TTITLE3=Honey bee
TTITLE4=Stranger blues
TTITLE5=Big time gambler
TTITLE6=Rock n  bowl
TTITLE7=(I Said I m) really sorry, baby
TTITLE8=That s fine
TTITLE9=Rocket fuel man
TTITLE10=Brown sugarwater, (a.k.a. Dr. Bell s boogie)
TTITLE11=Coming home
EXTD=
EXTT0=
EXTT1=
EXTT2=
EXTT3=
EXTT4=
EXTT5=
EXTT6=
EXTT7=
EXTT8=
EXTT9=
EXTT10=
EXTT11=
PLAYORDER=
